<?xml version="1.0" encoding="iso-8859-1"?>
<!-- Generator: Adobe Illustrator 18.0.0, SVG Export Plug-In . SVG Version: 6.00 Build 0)  -->
<!DOCTYPE svg PUBLIC "-//W3C//DTD SVG 1.1//EN" "http://www.w3.org/Graphics/SVG/1.1/DTD/svg11.dtd">
<svg version="1.1" id="Capa_1" xmlns="http://www.w3.org/2000/svg" xmlns:xlink="http://www.w3.org/1999/xlink" x="0px" y="0px"
	 viewBox="0 0 308.385 308.385" style="enable-background:new 0 0 308.385 308.385;" xml:space="preserve">
<g>
	<g>
		<path d="M249.697,203.704h-23.499c-0.777-23.756-13.893-37.255-25.422-44.545c-13.359-8.448-27.175-10.247-27.757-10.319
			c-3.159-0.396-6.224,1.25-7.642,4.102c-1.419,2.851-0.882,6.286,1.337,8.568c7.02,7.222,7.451,13.325,5.686,16.357
			c-0.829,1.424-2.464,2.749-4.579,2.2c-2.301-0.599-4.669-1.701-7.412-2.979c-8.426-3.928-19.794-9.219-42.629-6.637v-49.771
			c0-0.071-0.001-0.143-0.003-0.214c-0.811-28.383-19.246-50.934-25.837-58.114v-32.56c0-12.715-10.344-23.059-23.058-23.059H51.438
			c-12.715,0-23.06,10.344-23.06,23.059v32.56c-6.591,7.181-25.026,29.731-25.837,58.114c-0.002,0.071-0.003,0.143-0.003,0.214
			v147.638c0,12.119,9.097,21.978,20.279,21.978h50.667c10.093,11.65,18.791,16.687,19.578,17.129
			c1.121,0.629,2.385,0.959,3.67,0.959h85.568c1.285,0,2.549-0.33,3.67-0.959c1.046-0.587,25.785-14.81,40.937-52.957
			c0.47-1.183,3.62-2.798,6.398-4.223c8.936-4.582,23.891-12.25,23.891-39.043C257.197,207.061,253.839,203.704,249.697,203.704z
			 M154.076,190.685c3.121,1.454,6.348,2.957,9.971,3.899c8.304,2.158,16.871-1.527,21.319-9.174
			c2.465-4.237,3.714-9.974,2.383-16.415c10.598,5.226,22.487,15.384,23.421,34.708H83.67c5.467-6.947,15.354-15.407,32.024-17.858
			C136.971,182.716,146.059,186.95,154.076,190.685z M43.379,29.793c0-4.443,3.616-8.059,8.06-8.059h17.444
			c4.443,0,8.058,3.615,8.058,8.059v28.072H43.379V29.793z M22.818,275.297c-2.862,0-5.279-3.195-5.279-6.978V120.792
			c0.692-22.7,16.021-41.75,21.573-47.927h42.096c5.552,6.177,20.881,25.226,21.573,47.927v52.622
			c-22.066,6.755-32.683,22.22-36.88,30.289H49.3c-2.133,0-4.166,0.908-5.588,2.498c-1.423,1.59-2.102,3.71-1.866,5.83
			c3.097,27.871,11.515,48.477,20.657,63.266H22.818z M226.462,236.899c-5.13,2.631-10.945,5.612-13.495,12.033
			c-11.036,27.784-27.796,40.957-32.867,44.453H98.906c-6.595-4.49-33.055-25.313-41.021-74.682h183.769
			C239.817,230.051,233.545,233.267,226.462,236.899z"/>
		<path d="M305.646,273.935l-38.209-152.15c11.907-14.67,14.879-40.86,6.844-64.573l-4.501-13.282
			c-0.639-1.884-1.999-3.437-3.783-4.317c-1.783-0.881-3.845-1.017-5.728-0.379l-1.018,0.345l-11.82-34.507
			c-1.342-3.918-5.607-6.005-9.525-4.665c-3.919,1.343-6.007,5.607-4.665,9.526l11.803,34.459l-6.067,2.056l-11.797-34.44
			c-1.342-3.918-5.604-6.005-9.525-4.665c-3.919,1.343-6.007,5.608-4.665,9.526l11.78,34.393l-6.067,2.056l-11.773-34.373
			c-1.342-3.918-5.604-6.006-9.525-4.665c-3.919,1.343-6.007,5.607-4.665,9.526l11.757,34.325l-6.067,2.056L186.68,25.879
			c-1.342-3.918-5.604-6.005-9.525-4.665c-3.919,1.343-6.007,5.607-4.665,9.526l11.745,34.289c-3.522,1.548-5.339,5.555-4.082,9.267
			l4.5,13.283c8.436,24.895,28.471,41.897,44.763,46.77l62.066,144.375c1.221,2.84,3.987,4.54,6.894,4.54
			C298.98,283.264,307.226,282.773,305.646,273.935z M198.86,82.766l-2.094-6.18l61.215-20.739l2.093,6.179
			c7.468,22.039,2.772,43.886-6.081,52.273c-2.23,2.112-2.873,5.268-1.896,7.983l16.212,64.559l-26.283-61.138
			c-0.819-2.577-3.002-4.623-5.85-5.123C223.646,118.381,205.817,103.299,198.86,82.766z"/>
	</g>
</g>
<g>
</g>
<g>
</g>
<g>
</g>
<g>
</g>
<g>
</g>
<g>
</g>
<g>
</g>
<g>
</g>
<g>
</g>
<g>
</g>
<g>
</g>
<g>
</g>
<g>
</g>
<g>
</g>
<g>
</g>
</svg>
