<svg id="Layer_1" height="512" viewBox="0 0 128 128" width="512" xmlns="http://www.w3.org/2000/svg" data-name="Layer 1"><path d="m98.772 11.155a1.751 1.751 0 0 0 -2.322-1.806 66.5 66.5 0 0 1 -19.75 2.92 63.892 63.892 0 0 1 -19.739-2.914 1.751 1.751 0 0 0 -2.342 1.8l.53 5.939a1.739 1.739 0 0 0 -.53 1.4l2.676 29.958a13.119 13.119 0 0 0 .54 2.688l-27.987 56.441a6.024 6.024 0 0 0 10.4 6.033l24.023-35.789 2.2 31.47a10.26 10.26 0 0 0 20.458-.016l3.3-47.289a9.735 9.735 0 0 1 2.5-5.844 13.272 13.272 0 0 0 3.376-7.7l2.676-29.957a1.74 1.74 0 0 0 -.531-1.4zm-22.072 4.614a72.655 72.655 0 0 0 18.361-2.354l-.339 3.794a69.094 69.094 0 0 1 -18.022 2.391 67.626 67.626 0 0 1 -18.02-2.383l-.339-3.788a71.252 71.252 0 0 0 18.359 2.34zm-39.359 95.894a2.524 2.524 0 0 1 -4.357-2.527l26.816-54.076a12.966 12.966 0 0 0 .874 1.087 9.74 9.74 0 0 1 2.5 5.844l.708 10.146zm55.269-63.526a9.756 9.756 0 0 1 -2.479 5.656 13.256 13.256 0 0 0 -3.4 7.953l-3.3 47.273a6.76 6.76 0 0 1 -13.478.016l-3.3-47.289a13.25 13.25 0 0 0 -3.4-7.953 9.75 9.75 0 0 1 -2.48-5.655l-2.437-27.368a71.252 71.252 0 0 0 18.364 2.33 72.655 72.655 0 0 0 18.357-2.35z"/><path d="m76.7 104.027a4.2 4.2 0 1 0 4.2 4.2 4.209 4.209 0 0 0 -4.2-4.2zm0 4.908a.7.7 0 1 1 .7-.7.7.7 0 0 1 -.7.701z"/><path d="m68.406 32.97v.092.022l.008.127c.007.238.02.474.046.707l3.8 58.063a4.435 4.435 0 0 0 8.852 0l3.806-58.063c.027-.233.039-.469.046-.707l.008-.127c0-.008 0-.015 0-.022 0-.031 0-.061 0-.092a8.29 8.29 0 1 0 -16.579 0zm9.223 58.784a.936.936 0 0 1 -1.867 0l-3.39-51.725a8.212 8.212 0 0 0 8.647 0zm3.854-58.806-.008.122a4.78 4.78 0 0 1 -9.559 0l-.008-.122a4.787 4.787 0 0 1 9.575 0z"/></svg>