<svg height="512pt" viewBox="-28 0 512 512" width="512pt" xmlns="http://www.w3.org/2000/svg"><path d="m292.753906 101.519531c-2.929687-2.929687-7.675781-2.925781-10.605468 0l-7.074219 7.070313c-2.925781 2.929687-2.925781 7.679687 0 10.609375 2.933593 2.929687 7.679687 2.925781 10.609375 0l7.070312-7.070313c2.929688-2.933594 2.929688-7.679687 0-10.609375zm0 0"/><path d="m347.90625 181.421875 7.074219-7.070313c2.925781-2.929687 2.925781-7.675781 0-10.605468-2.929688-2.929688-7.679688-2.929688-10.609375 0l-7.070313 7.070312c-2.929687 2.929688-2.929687 7.675782 0 10.605469 2.929688 2.929687 7.679688 2.929687 10.605469 0zm0 0"/><path d="m294.875 130.136719c-3.199219 9.054687-.839844 19.335937 6.011719 26.183593 6.851562 6.855469 17.132812 9.207032 26.183593 6.011719 3.90625-1.378906 5.957032-5.660156 4.578126-9.566406-1.378907-3.90625-5.664063-5.957031-9.570313-4.578125-3.640625 1.285156-7.796875.316406-10.585937-2.472656-2.789063-2.789063-3.757813-6.945313-2.472657-10.585938 1.378907-3.90625-.667969-8.1875-4.574219-9.566406-3.90625-1.382812-8.191406.667969-9.570312 4.574219zm0 0"/><path d="m445.5 55.769531-44.769531-44.773437c-7.09375-7.089844-16.523438-10.996094-26.554688-10.996094-8.289062 0-16.144531 2.664062-22.710937 7.703125-11.578125 8.875-23.175782 18.054687-34.46875 27.28125-3.210938 2.621094-3.6875 7.34375-1.066406 10.554687 2.621093 3.207032 7.347656 3.683594 10.554687 1.0625 11.175781-9.128906 22.652344-18.210937 34.105469-26.996093 3.929687-3.011719 8.628906-4.605469 13.585937-4.605469 6.023438 0 11.6875 2.347656 15.945313 6.605469l44.773437 44.773437c4.257813 4.257813 6.605469 9.917969 6.605469 15.941406 0 4.957032-1.59375 9.65625-4.605469 13.585938-34.679687 45.222656-72.574219 88.890625-112.628906 129.792969-2.917969 2.980469-7.707031 2.992187-10.65625.042969l-82.851563-82.855469c-2.949218-2.949219-2.941406-7.738281.039063-10.65625 23.425781-22.9375 47.910156-45.3125 72.773437-66.511719 3.152344-2.6875 3.53125-7.417969.84375-10.570312-2.6875-3.152344-7.421874-3.53125-10.574218-.84375-25.125 21.417968-49.867188 44.03125-73.539063 67.210937-8.988281 8.800781-8.964843 23.164063-.152343 31.980469l25.515624 25.515625-57.390624 57.390625c-3.257813.621094-6.398438 1.839844-9.367188 3.65625-4.078125 2.492187-8.222656 5.164062-12.386719 7.953125-11.296875-18.285157-31.28125-29.324219-54.050781-29.324219-25.632812 0-54.839844 15.535156-62.304688 50.25-3.394531 15.773438-6.410156 32.097656-8.992187 48.566406-26.203125 21.480469-41.171875 53.015625-41.171875 86.996094v100c0 4.144531 3.359375 7.5 7.5 7.5h210c4.140625 0 7.5-3.355469 7.5-7.5v-100c0-32.835938-13.976562-63.386719-38.5625-84.789062 2.21875-2.527344 16.707031-20.363282 30-42.117188 1.816406-2.972656 3.039062-6.113281 3.660156-9.371094l57.390625-57.390625 25.515625 25.515625c8.84375 8.839844 23.199219 8.8125 31.980469-.152344 40.476563-41.332031 78.769531-85.460937 113.8125-131.160156 5.039063-6.570312 7.703125-14.425781 7.703125-22.714844 0-10.03125-3.90625-19.460937-11-26.550781zm-235.5 348.730469v92.5h-195v-92.5c0-23.25 8.09375-45.175781 22.675781-62.539062-4.226562 32.675781-6.804687 66.117187-7.667969 99.707031-.003906.214843-.007812.429687-.007812.640625 0 9.707031 5.746094 18.492187 14.636719 22.382812 8.378906 3.660156 16.96875 6.679688 25.539062 8.964844 4.046875 1.074219 8.125-1.351562 9.179688-5.3125 1.070312-4.003906-1.308594-8.113281-5.3125-9.183594-7.839844-2.089844-15.707031-4.851562-23.394531-8.214844-3.308594-1.449218-5.695313-4.746093-5.644532-8.882812 1.039063-40.390625 4.585938-80.558594 10.542969-119.378906 2.628906-17.160156 5.753906-34.179688 9.285156-50.589844 6.097657-28.347656 29.472657-38.402344 47.640625-38.402344 17.726563 0 33.210938 8.652344 41.714844 22.929688-5.648438 4.109375-11.25 8.40625-16.707031 12.820312-10.394531 8.414063-11.222657 23.988282-1.78125 33.429688l17.929687 17.929687c4.242188 4.238281 10.105469 6.757813 16.523438 6.578125 6.277344 42.414063 9.492187 87.738282 9.847656 114.929688 0 3.746094-2.21875 7.136718-5.648438 8.636718-23.535156 10.292969-47.894531 14.675782-72.171874 12.953126-4.132813-.285157-7.71875 2.820312-8.015626 6.953124-.289062 4.132813 2.820313 7.71875 6.953126 8.011719 26.75 1.894531 53.480468-2.910156 79.242187-14.171875 9-3.9375 14.875-12.945312 14.632813-23.015625-.867188-33.582031-3.441407-67.027343-7.671876-99.71875 14.582032 17.367188 22.679688 39.292969 22.679688 62.542969zm-6.359375-134.730469c-8.144531 13.324219-17.644531 26.71875-28.242187 39.816407-2.789063 3.445312-7.984376 3.785156-11.164063.605468l-17.929687-17.929687c-3.15625-3.15625-2.871094-8.339844.609374-11.160157 6.898438-5.578124 14.023438-10.957031 21.183594-15.992187.015625-.007813.027344-.015625.039063-.023437 6.25-4.394532 12.503906-8.503907 18.59375-12.226563 5.261719-3.21875 11.070312-2.289063 15.132812 1.773437 3.957031 3.957032 5.058594 9.765626 1.777344 15.136719zm13.417969-19.71875c-2.457032-4.335937-6.105469-8.054687-10.609375-10.609375l49.824219-49.820312 10.609374 10.605468zm0 0"/></svg>